# xmcd
#
# Track frame offsets: 
#        150
#        12548
#        23178
#        34641
#        45580
#        59872
#        71711
#        84561
#        95032
#        106452
#        117291
#        130444
#        141950
#        151630
#        161880
#        172986
#        185966
#        197051
#        209567
#        219137
#        231289
#        243450
#        254703
#        264647
#        273649
#
# Disc length: 3775 seconds
#
# Revision: 0
# Processed by: cddbd v1.5.2PL0 Copyright (c) Steve Scherf et al.
# Submitted via: ExactAudioCopyFreeDBPlugin 1.0
#
DISCID=860ebd19
DTITLE=Lefty Frizzell - Selected Sides 1950-1959 [CD3] 1953-1957
DYEAR=2010
DGENRE=Country
TTITLE0=You're Too Late
TTITLE1=My Little Her And Him
TTITLE2=I Love You Mostly
TTITLE3=Mama!
TTITLE4=Making Believe
TTITLE5=Moonlight Darling And You
TTITLE6=I'll Sit Alone And Cry
TTITLE7=A Forest Fire (Is In Your Heart)
TTITLE8=Sweet Lies
TTITLE9=Your Tomorrows Will Never Come
TTITLE10=It Gets Late So Early
TTITLE11=I'm Lost Between Right And Wrong
TTITLE12=Promises (Promises, Promises)
TTITLE13=Today Is That Tomorrow (I Dreamed Of Yesterday)
TTITLE14=First To Have A Second Chance
TTITLE15=These Hands
TTITLE16=Heart's Highway
TTITLE17=I'm A Boy Left Alone
TTITLE18=Just Can't Live That Fast (Anymore)
TTITLE19=The Waltz Of The Angels
TTITLE20=Lullaby Waltz
TTITLE21=Glad I Found You
TTITLE22=Now That You Are Gone
TTITLE23=From An Angel To A Devil
TTITLE24=Lover By Appointment
EXTD=
EXTT0=
EXTT1=
EXTT2=
EXTT3=
EXTT4=
EXTT5=
EXTT6=
EXTT7=
EXTT8=
EXTT9=
EXTT10=
EXTT11=
EXTT12=
EXTT13=
EXTT14=
EXTT15=
EXTT16=
EXTT17=
EXTT18=
EXTT19=
EXTT20=
EXTT21=
EXTT22=
EXTT23=
EXTT24=
PLAYORDER=
